<svg width="25" height="28" viewBox="0 0 25 28" fill="none" xmlns="http://www.w3.org/2000/svg">
<path d="M8.95862 0C7.31362 0 5.95862 1.355 5.95862 3V14.813L5.30262 14.125L5.05262 13.906C4.4964 13.3523 3.74349 13.0414 2.95862 13.0414C2.17376 13.0414 1.42085 13.3523 0.864625 13.906C0.310882 14.4622 0 15.2151 0 16C0 16.7849 0.310882 17.5378 0.864625 18.094V18.125L9.05262 26.219L9.11462 26.25L9.14563 26.313C10.5846 27.4038 12.3399 27.996 14.1456 28H15.8656C16.9415 28.0022 18.0072 27.792 19.0015 27.3813C19.9959 26.9706 20.8994 26.3675 21.6601 25.6067C22.4208 24.8459 23.0237 23.9424 23.4343 22.948C23.8449 21.9536 24.055 20.8878 24.0526 19.812V12C24.0526 10.355 22.6966 9 21.0526 9C20.6266 9 20.2326 9.117 19.8646 9.281C19.5366 7.981 18.3536 7 16.9586 7C16.1926 7 15.4896 7.3 14.9586 7.781C14.412 7.28153 13.6991 7.00316 12.9586 7C12.6169 7.00427 12.2786 7.06789 11.9586 7.188V3C11.9586 1.355 10.6036 0 8.95862 0Z" fill="black"/>
<path d="M5.77769 14.9855L6.20862 15.4375V14.813V3C6.20862 1.49307 7.4517 0.25 8.95862 0.25C10.4656 0.25 11.7086 1.49307 11.7086 3V7.188V7.5489L12.0465 7.42205C12.3387 7.31236 12.6476 7.25415 12.9597 7.25001C13.6373 7.25342 14.2896 7.50842 14.79 7.96557L14.9579 8.11897L15.1265 7.96628C15.6148 7.52391 16.259 7.25 16.9586 7.25C18.2343 7.25 19.321 8.14843 19.6222 9.34216L19.6949 9.63033L19.9664 9.50935C20.3148 9.35407 20.6732 9.25 21.0526 9.25C22.5586 9.25 23.8026 10.4931 23.8026 12V19.812V19.8126C23.8049 20.8555 23.6012 21.8886 23.2032 22.8526C22.8052 23.8166 22.2207 24.6925 21.4833 25.43C20.7459 26.1675 19.87 26.7521 18.9061 27.1502C17.9422 27.5483 16.9091 27.7522 15.8661 27.75H15.8656H14.1462C12.4144 27.7462 10.7304 27.1845 9.3436 26.1491L9.33894 26.1396L9.30176 26.0641L9.22643 26.0264L9.20005 26.0132L1.11462 18.0206V17.9908L1.0418 17.9176C0.534696 17.4082 0.25 16.7188 0.25 16C0.25 15.2814 0.534553 14.5921 1.04141 14.0828C1.55075 13.5759 2.24006 13.2914 2.95862 13.2914C3.67738 13.2914 4.36687 13.5761 4.87624 14.0832L4.88189 14.0888L4.88789 14.0941L5.12944 14.3056L5.77769 14.9855ZM7.70862 19.0214L3.8224 15.1352C3.56887 14.8817 3.27666 14.7283 2.9585 14.7283C2.64041 14.7283 2.34801 14.8816 2.09405 15.135L2.09385 15.1352C1.84024 15.3888 1.68687 15.6813 1.68687 15.9995C1.68687 16.3177 1.84024 16.6102 2.09384 16.8638L2.09488 16.8648L10.1889 24.8648L10.2009 24.8767L10.2144 24.8868C11.301 25.7036 12.6185 26.25 14.1466 26.25H15.8646C19.4677 26.25 22.3026 23.4151 22.3026 19.813V12C22.3026 11.3068 21.7445 10.75 21.0526 10.75C20.3596 10.75 19.8026 11.3069 19.8026 12V13.75H18.2086V10C18.2086 9.30693 17.6517 8.75 16.9586 8.75C16.2656 8.75 15.7086 9.30693 15.7086 10V13.75H14.2086V10C14.2086 9.30693 13.6517 8.75 12.9586 8.75C12.2656 8.75 11.7086 9.30693 11.7086 10V13.75H10.2086V3C10.2086 2.30693 9.6517 1.75 8.95862 1.75C8.26555 1.75 7.70862 2.30693 7.70862 3V19.0214Z" fill="white" stroke="black" stroke-width="0.5"/>
</svg>
